<?xml version="1.0" encoding="UTF-8" standalone="no" ?>
<!DOCTYPE svg PUBLIC "-//W3C//DTD SVG 1.1//EN" "http://www.w3.org/Graphics/SVG/1.1/DTD/svg11.dtd">
<svg xmlns="http://www.w3.org/2000/svg" xmlns:xlink="http://www.w3.org/1999/xlink" version="1.1" width="1080" height="1080" viewBox="0 0 1080 1080" xml:space="preserve">
<desc>Created with Fabric.js 5.3.0</desc>
<defs>
</defs>
<g transform="matrix(1.5885438283757796 0 0 1.5885438283757796 540.104901647765 540.1389860033056)" id="background-50af67c3-8f24-4f32-a7a6-52a232123889"  >
<rect style="stroke: none; stroke-width: 0; stroke-dasharray: none; stroke-linecap: butt; stroke-dashoffset: 0; stroke-linejoin: miter; stroke-miterlimit: 4; fill: rgb(217,217,216); fill-rule: nonzero; opacity: 1;"  paint-order="stroke"  x="-340" y="-340" rx="0" ry="0" width="680" height="680" />
</g>
<g transform="matrix(2.568572060114236 -1.1436019614448996 1.1436019614448996 2.5685720601142354 1004.7825978440865 911.4678506892926)" id="shape-f0cc2ac7-7740-479e-9fbf-84e92ceaa061"  >
<g style="opacity: 0.41;"  paint-order="stroke"   >
		<g transform="matrix(1 0 0 1 0 0)" id="Layer_1"  >
<path style="stroke: none; stroke-width: 1; stroke-dasharray: none; stroke-linecap: butt; stroke-dashoffset: 0; stroke-linejoin: miter; stroke-miterlimit: 4; fill: rgb(243,92,36); fill-rule: nonzero; opacity: 1;"  paint-order="stroke"  transform=" translate(-100, -100)" d="M 100 200 C 44.771525016920656 200 0 155.22847498307934 0 100 C 0 44.77152501692066 44.771525016920656 0 100 0 C 155.22847498307934 0 200 44.771525016920634 200 99.99999999999997 C 199.93937629545218 155.20334432271795 155.20334432271795 199.93937629545218 99.99999999999999 200 Z M 100 3 C 46.42837926641303 3 3 46.42837926641303 3 100 C 3 153.57162073358697 46.42837926641303 197 100 197 C 153.57162073358697 197 197 153.57162073358697 197 100 C 196.91740169874194 46.462629927545215 153.53737007245473 3.082598301258031 99.99999999999996 3 Z" stroke-linecap="round" />
</g>
</g>
</g>
<g transform="matrix(1.990841837784481 -0.8863798940940145 0.8863798940940137 1.9908418377844794 1022.7091399584442 951.7315235070832)" id="shape-4b088c3a-1dc1-4973-a19a-3a595a321607"  >
<g style="opacity: 0.41;"  paint-order="stroke"   >
		<g transform="matrix(1 0 0 1 0 0)" id="Layer_1"  >
<path style="stroke: none; stroke-width: 1; stroke-dasharray: none; stroke-linecap: butt; stroke-dashoffset: 0; stroke-linejoin: miter; stroke-miterlimit: 4; fill: rgb(243,92,36); fill-rule: nonzero; opacity: 1;"  paint-order="stroke"  transform=" translate(-100, -100)" d="M 100 200 C 44.771525016920656 200 0 155.22847498307934 0 100 C 0 44.77152501692066 44.771525016920656 0 100 0 C 155.22847498307934 0 200 44.771525016920634 200 99.99999999999997 C 199.93937629545218 155.20334432271795 155.20334432271795 199.93937629545218 99.99999999999999 200 Z M 100 3 C 46.42837926641303 3 3 46.42837926641303 3 100 C 3 153.57162073358697 46.42837926641303 197 100 197 C 153.57162073358697 197 197 153.57162073358697 197 100 C 196.91740169874194 46.462629927545215 153.53737007245473 3.082598301258031 99.99999999999996 3 Z" stroke-linecap="round" />
</g>
</g>
</g>
<g transform="matrix(1.2990996339384824 -0.5783964221032312 0.5783964221032312 1.2990996339384824 1040.6792245121062 998.6243294662434)" id="shape-01174967-4f26-46f3-bab6-66a9652cd868"  >
<g style="opacity: 0.41;"  paint-order="stroke"   >
		<g transform="matrix(1 0 0 1 0 0)" id="Layer_1"  >
<path style="stroke: none; stroke-width: 1; stroke-dasharray: none; stroke-linecap: butt; stroke-dashoffset: 0; stroke-linejoin: miter; stroke-miterlimit: 4; fill: rgb(243,92,36); fill-rule: nonzero; opacity: 1;"  paint-order="stroke"  transform=" translate(-100, -100)" d="M 100 200 C 44.771525016920656 200 0 155.22847498307934 0 100 C 0 44.77152501692066 44.771525016920656 0 100 0 C 155.22847498307934 0 200 44.771525016920634 200 99.99999999999997 C 199.93937629545218 155.20334432271795 155.20334432271795 199.93937629545218 99.99999999999999 200 Z M 100 3 C 46.42837926641303 3 3 46.42837926641303 3 100 C 3 153.57162073358697 46.42837926641303 197 100 197 C 153.57162073358697 197 197 153.57162073358697 197 100 C 196.91740169874194 46.462629927545215 153.53737007245473 3.082598301258031 99.99999999999996 3 Z" stroke-linecap="round" />
</g>
</g>
</g>
<g transform="matrix(0.3434231822842081 0 0 2.0867371261826215 101.79384366955287 33.21839438408085)" id="shape-a1adef1c-e817-440c-bff1-9ed0cb8f0839"  >
<g style="opacity: 0.51;"  paint-order="stroke"   >
		<g transform="matrix(1 0 0 1 0 0)" id="Layer_1"  >
<rect style="stroke: none; stroke-width: 0; stroke-dasharray: none; stroke-linecap: butt; stroke-dashoffset: 0; stroke-linejoin: miter; stroke-miterlimit: 4; fill: rgb(243,92,36); fill-rule: nonzero; opacity: 1;"  paint-order="stroke"  x="-100" y="-100" rx="0" ry="0" width="200" height="200" />
</g>
</g>
</g>
<g transform="matrix(0.3434231822842081 0 0 2.0867371261826215 184.17292505815755 33.21839438408085)" id="shape-2ee45ff5-d2ac-400e-b813-8a27eaf9d5dc"  >
<g style="opacity: 0.36;"  paint-order="stroke"   >
		<g transform="matrix(1 0 0 1 0 0)" id="Layer_1"  >
<rect style="stroke: none; stroke-width: 0; stroke-dasharray: none; stroke-linecap: butt; stroke-dashoffset: 0; stroke-linejoin: miter; stroke-miterlimit: 4; fill: rgb(243,92,36); fill-rule: nonzero; opacity: 1;"  paint-order="stroke"  x="-100" y="-100" rx="0" ry="0" width="200" height="200" />
</g>
</g>
</g>
<g transform="matrix(0.3434231822842081 0 0 2.0867371261826215 268.78003884571507 33.21839438408085)" id="shape-9275ac74-2fe7-4d73-8e99-68808f4df034"  >
<g style="opacity: 0.23;"  paint-order="stroke"   >
		<g transform="matrix(1 0 0 1 0 0)" id="Layer_1"  >
<rect style="stroke: none; stroke-width: 0; stroke-dasharray: none; stroke-linecap: butt; stroke-dashoffset: 0; stroke-linejoin: miter; stroke-miterlimit: 4; fill: rgb(243,92,36); fill-rule: nonzero; opacity: 1;"  paint-order="stroke"  x="-100" y="-100" rx="0" ry="0" width="200" height="200" />
</g>
</g>
</g>
<g transform="matrix(0.3434231822842081 0 0 2.0867371261826215 183.0589088586808 959.4660582586905)" id="shape-fe2af20b-df5b-4ba7-8e70-5c8b52a92185"  >
<g style="opacity: 0.39;"  paint-order="stroke"   >
		<g transform="matrix(1 0 0 1 0 0)" id="Layer_1"  >
<rect style="stroke: none; stroke-width: 0; stroke-dasharray: none; stroke-linecap: butt; stroke-dashoffset: 0; stroke-linejoin: miter; stroke-miterlimit: 4; fill: rgb(243,92,36); fill-rule: nonzero; opacity: 1;"  paint-order="stroke"  x="-100" y="-100" rx="0" ry="0" width="200" height="200" />
</g>
</g>
</g>
<g transform="matrix(0.3434231822842081 0 0 2.0867371261826215 267.6660226462386 959.4660582586905)" id="shape-f6ff9594-80a1-4faf-863a-ac58095c97f2"  >
<g style="opacity: 0.26;"  paint-order="stroke"   >
		<g transform="matrix(1 0 0 1 0 0)" id="Layer_1"  >
<rect style="stroke: none; stroke-width: 0; stroke-dasharray: none; stroke-linecap: butt; stroke-dashoffset: 0; stroke-linejoin: miter; stroke-miterlimit: 4; fill: rgb(243,92,36); fill-rule: nonzero; opacity: 1;"  paint-order="stroke"  x="-100" y="-100" rx="0" ry="0" width="200" height="200" />
</g>
</g>
</g>
<g transform="matrix(0.3434231822842081 0 0 2.0867371261826215 100.67982747007636 959.4660582586905)" id="shape-ef325339-db05-4426-adbf-9ec8ceac0789"  >
<g style="opacity: 0.51;"  paint-order="stroke"   >
		<g transform="matrix(1 0 0 1 0 0)" id="Layer_1"  >
<rect style="stroke: none; stroke-width: 0; stroke-dasharray: none; stroke-linecap: butt; stroke-dashoffset: 0; stroke-linejoin: miter; stroke-miterlimit: 4; fill: rgb(243,92,36); fill-rule: nonzero; opacity: 1;"  paint-order="stroke"  x="-100" y="-100" rx="0" ry="0" width="200" height="200" />
</g>
</g>
</g>
</svg>